<?xml version="1.0" encoding="utf-8"?>
<!-- Generator: Adobe Illustrator 22.0.1, SVG Export Plug-In . SVG Version: 6.00 Build 0)  -->
<svg version="1.1" xmlns="http://www.w3.org/2000/svg" xmlns:xlink="http://www.w3.org/1999/xlink" x="0px" y="0px"
	 viewBox="0 0 665.464 89.435" style="enable-background:new 0 0 665.464 89.435;" xml:space="preserve">
<style type="text/css">
	.st0{fill:#E1E4E5;}
	.st1{fill:#E1E4E5;stroke:#E1E4E5;stroke-width:0.36;stroke-linecap:round;stroke-miterlimit:10;}
	.st2{fill:#FFFFFF;}
</style>
<g id="Tower">
	<polygon class="st0" points="537.98,12.652 537.98,12.661 537.98,12.652 532.641,12.439 532.641,12.439 527.379,12.439 
		527.294,12.439 522.033,12.439 522.033,12.439 516.694,12.652 516.694,12.661 516.693,12.652 513.568,12.89 513.568,15.659 
		516.872,15.408 522.1,15.2 527.294,15.2 527.379,15.2 532.574,15.2 537.802,15.408 541.008,15.652 541.008,12.883 	"/>
	
		<rect x="515.153" y="15.382" transform="matrix(0.9647 -0.2633 0.2633 0.9647 12.5414 136.453)" class="st0" width="0.487" height="12.102"/>
	
		<rect x="538.935" y="15.373" transform="matrix(-0.9647 -0.2633 0.2633 -0.9647 1053.6925 184.0596)" class="st0" width="0.487" height="12.111"/>
	
		<rect x="519.132" y="14.497" transform="matrix(0.9647 -0.2633 0.2633 0.9647 12.9146 137.4695)" class="st0" width="0.487" height="12.102"/>
	
		<rect x="534.648" y="14.497" transform="matrix(-0.9647 -0.2633 0.2633 -0.9647 1045.5001 181.2016)" class="st0" width="0.487" height="12.102"/>
	<rect x="527.051" y="14.497" transform="matrix(1 0.0089 -0.0089 1 0.2027 -4.6705)" class="st0" width="0.487" height="12.102"/>
	<rect x="518.198" y="0.18" class="st1" width="0.151" height="13.544"/>
	<rect x="534.83" y="0.208" class="st1" width="0.151" height="13.544"/>
	<rect x="514.137" y="7.38" class="st1" width="0.151" height="7.53"/>
	<rect x="515.536" y="6.5" class="st1" width="0.151" height="7.53"/>
	<rect x="535.977" y="6.651" class="st1" width="0.151" height="7.53"/>
	<rect x="537.186" y="7.004" class="st1" width="0.151" height="7.53"/>
	<rect x="531.295" y="6.198" class="st1" width="0.151" height="7.53"/>
	<rect x="524.75" y="5.946" class="st1" width="0.151" height="7.53"/>
	<polygon class="st0" points="547.839,76.559 540.472,76.559 540.472,30.2 541.73,30.2 543.581,30.2 543.581,26.95 543.045,26.95 
		543.045,22.919 541.194,22.919 528.146,22.919 528.092,22.919 526.294,22.919 526.241,22.919 513.193,22.919 511.342,22.919 
		511.342,26.95 510.806,26.95 510.806,30.2 512.657,30.2 513.914,30.2 513.914,68.019 513.922,68.019 513.922,72.218 
		506.065,72.218 506.065,73.451 506.386,73.451 506.386,75.487 508.101,77.738 508.101,87.921 513.922,87.921 515.773,87.921 
		526.241,87.921 526.294,87.921 527.181,87.921 528.092,87.921 528.146,87.921 545.856,87.921 547.708,87.921 547.761,87.6 
		547.761,81.383 549.369,79.507 549.369,77.149 549.691,77.095 549.691,76.559 	"/>
	<g>
		<circle class="st2" cx="524.126" cy="34.316" r="1.309"/>
		<rect x="523.209" y="40.244" class="st2" width="1.929" height="1.929"/>
		<rect x="523.209" y="42.576" class="st2" width="1.929" height="1.929"/>
		<rect x="523.209" y="44.907" class="st2" width="1.929" height="1.929"/>
		<rect x="523.209" y="47.238" class="st2" width="1.929" height="1.929"/>
		<rect x="523.209" y="49.57" class="st2" width="1.929" height="1.929"/>
		<rect x="523.209" y="51.901" class="st2" width="1.929" height="1.929"/>
		<rect x="523.209" y="54.233" class="st2" width="1.929" height="1.929"/>
		<rect x="523.209" y="56.564" class="st2" width="1.929" height="1.929"/>
		<rect x="523.209" y="58.895" class="st2" width="1.929" height="1.929"/>
		<rect x="523.209" y="61.227" class="st2" width="1.929" height="1.929"/>
		<rect x="523.209" y="63.558" class="st2" width="1.929" height="1.929"/>
		<rect x="523.209" y="65.889" class="st2" width="1.929" height="1.929"/>
		<rect x="523.209" y="68.221" class="st2" width="1.929" height="1.929"/>
	</g>
</g>
<g id="plane">
	<path class="st0" d="M197.682,46.862l-2.915-0.459c-0.022-0.003-0.043-0.007-0.064-0.01l0.018-0.114
		c0.016-0.103-0.137-0.212-0.342-0.244c-0.205-0.032-0.385,0.025-0.401,0.127l-0.021,0.133c-0.623-0.054-1-0.078-1.432,0.341
		l-8.024,6.901l-8.007,0.325l-9.611-1.514l-0.001-0.002l0,0c-0.022-0.037-0.05-0.076-0.081-0.115
		c-0.012-0.015-0.027-0.03-0.04-0.045c-0.022-0.025-0.043-0.051-0.069-0.077c-0.018-0.018-0.039-0.037-0.058-0.055
		c-0.025-0.024-0.049-0.047-0.077-0.072c-0.023-0.02-0.048-0.041-0.073-0.061c-0.028-0.023-0.055-0.047-0.086-0.071
		c-0.027-0.021-0.057-0.043-0.086-0.065c-0.031-0.023-0.061-0.047-0.094-0.07c-0.031-0.022-0.065-0.045-0.097-0.068
		c-0.034-0.024-0.068-0.047-0.103-0.071c-0.035-0.023-0.072-0.047-0.108-0.071c-0.036-0.024-0.073-0.047-0.11-0.071
		c-0.039-0.024-0.079-0.048-0.119-0.073c-0.039-0.024-0.078-0.047-0.118-0.071c-0.042-0.025-0.084-0.049-0.127-0.074
		c-0.041-0.024-0.081-0.047-0.123-0.071c-0.045-0.026-0.091-0.051-0.138-0.077c-0.041-0.023-0.083-0.046-0.125-0.069
		c-0.049-0.027-0.098-0.053-0.148-0.08c-0.042-0.022-0.084-0.045-0.127-0.067c-0.052-0.027-0.104-0.054-0.157-0.081
		c-0.042-0.022-0.085-0.043-0.127-0.065c-0.055-0.028-0.11-0.055-0.165-0.083c-0.042-0.021-0.085-0.042-0.128-0.063
		c-0.057-0.028-0.114-0.056-0.172-0.084c-0.042-0.02-0.084-0.04-0.127-0.061c-0.059-0.028-0.119-0.056-0.179-0.085
		c-0.041-0.019-0.083-0.039-0.125-0.058c-0.062-0.029-0.124-0.057-0.186-0.086c-0.013-0.006-0.025-0.012-0.038-0.017l0,0
		c-0.085-0.039-0.171-0.077-0.256-0.116l0.027-0.169l-2.841-1.954c-1.863-0.601-7.741-1.91-8.539-1.23l-1.236,0.97
		c-0.196,0.055-0.392,0.12-0.585,0.19c-0.028,0.01-0.055,0.02-0.083,0.03c-0.081,0.03-0.162,0.062-0.242,0.094
		c-0.047,0.019-0.094,0.039-0.141,0.059c-0.047,0.02-0.093,0.04-0.139,0.06c-0.039,0.017-0.077,0.034-0.115,0.052
		c-1.242,0.566-2.255,1.321-2.414,1.696c-4.598-0.513-8.322,0.141-8.545,0.608c-1.307-0.206-2.609,0.287-2.646,0.523
		c-0.046,0.291,1.118,1.116,2.357,1.311c-0.013,1.196,1.502,4.163,5.163,4.793l-0.161,1.076c-0.939-0.052-1.862,0.166-2.137,0.277
		c-0.196,0.079-0.666,0.211-0.739,0.554c-0.1,0.473,0.496,0.736,1.049,1.021c0.125,0.065,0.239,0.11,0.35,0.144
		c0.009,0.599,0.446,1.123,1.058,1.219c0.623,0.098,1.211-0.282,1.392-0.868c0.049,0.005,0.101,0.008,0.158,0.01
		c0.47,0.013,0.625,0.128,1.254-0.065c0.629-0.193,0.863-0.076,0.994-0.402c0.183-0.455-0.127-0.727-0.679-0.889
		c-0.594-0.174-1.255-0.714-2.094-0.918l0.41-0.275c0.12-0.13,0.124-0.196,0.056-0.326l-0.33-0.464
		c3.497,0.556,6.09,1.013,9.162,1.145c0.483,0.021,1.368,0.041,2.549,0.06l-0.061,0.225c-1.176-0.043-2.421,0.168-2.652,0.268
		c-0.233,0.101-0.829,0.302-0.883,0.643c-0.079,0.504,0.344,0.67,1.235,1.199c0.277,0.165,0.532,0.236,0.809,0.27
		c0.03,0.622,0.466,1.153,1.074,1.249c0.666,0.105,1.297-0.352,1.459-1.033c0.174,0.028,0.341,0.046,0.512,0.037
		c0.548-0.028,1.031-0.17,1.842-0.352c0.767-0.172,0.9-0.157,1.21-0.591c0.358-0.502-0.319-0.569-1.114-0.901
		c-0.558-0.233-1.511-0.52-2.448-0.677l0.086-0.321c7.593,0.107,23.815,0.188,30.175,0.216c1.65,0.007,2.323,0.01,2.323,0.01
		c0.172,0.001,0.355-0.133,0.406-0.297c-0.051,0.164,0.047,0.285,0.218,0.27l2.937-0.272c0.342-0.032,0.738-0.314,0.879-0.628
		l4.435-9.894c0.227,0.036,0.342-0.104,0.392-0.422C198.323,46.991,198.118,46.931,197.682,46.862z M143.606,57.326l0.283,0.402
		c0.027,0.037,0.019,0.085-0.025,0.121l-0.367,0.197l0.131-0.875l0,0L143.606,57.326z"/>
</g>
<g id="ground">
	<path class="st0" d="M665.464,89.435c-2.684-1.562-6.254-2.623-11.023-2.583c-30.25,0.25-29.307-1.38-36.5-3.25
		c-17.957-4.669-20.5-1.5-38,1.5s-24.5,1.5-41.5,2s-34.5-2-58.5-5s-25.5-0.5-51,1.5s-43,1.5-62.5-2s-22,1.5-36,4s-29.5,1-44,2
		s-27-4-44.5-7s-21,1-32,0s-5.5,0.5-14.5,0.5s-8.5,0-19-0.5s-4.5,0.5-19,1.5s-8.5-1-17.5-0.5s-12.5,1-25.5,1s-12.5-1-21.5-1.5
		s-15,1.5-26,1s-19,3.5-28.5,3.5s-16.5,1-26.5,2C8.469,87.949,4.155,88.658,0,89.435H665.464z"/>
</g>
</svg>
